<svg xmlns="http://www.w3.org/2000/svg" width="9.371" height="7.508" viewBox="0 0 9.371 7.508">
  <path id="Union_3" data-name="Union 3" d="M-216.247-95.026l-3.4-3.4a1.27,1.27,0,0,1-.374-.908,1.27,1.27,0,0,1,.374-.909l3.4-3.4a1.274,1.274,0,0,1,1.8,0,1.276,1.276,0,0,1,0,1.8l-1.239,1.239h1.892a1.276,1.276,0,0,1,1.275,1.275,1.276,1.276,0,0,1-1.275,1.276h-1.878l1.225,1.226a1.276,1.276,0,0,1,0,1.8,1.271,1.271,0,0,1-.9.373A1.271,1.271,0,0,1-216.247-95.026Z" transform="translate(104.023 -212.515) rotate(-90)" fill="#fff" opacity="0.8"/>
</svg>
