<svg xmlns="http://www.w3.org/2000/svg" width="28.335" height="28.334" viewBox="0 0 28.335 28.334">
  <g id="globe" transform="translate(-1.457 -1.028)">
    <path id="Path_304" data-name="Path 304" d="M13.179,6.288v.027l.016-.02Z" fill="#fff"/>
    <path id="Path_305" data-name="Path 305" d="M15.624,1.028A14.167,14.167,0,1,0,29.792,15.195,14.183,14.183,0,0,0,15.624,1.028ZM28.567,15.195c0,.248-.022.49-.037.735-.091-.23-.229-.53-.262-.659-.048-.2-.341-.879-.341-.879a2.212,2.212,0,0,0-.488-.488c-.194-.1-.341-.342-.683-.536a1.409,1.409,0,0,0-.779-.293c-.294,0-.585-.391-.928-.586s-.39-.1-.39-.1a3.3,3.3,0,0,1,.39.731c0,.146.438.39.879.292a4.813,4.813,0,0,0,.438.683c.146.146-.049.293-.341.488a1.583,1.583,0,0,0-.392.292,6.58,6.58,0,0,1-.78.488c-.146.1-.731.39-1.023.1-.143-.141-.1-.438-.195-.634s-1.122-1.707-1.61-2.389a2.836,2.836,0,0,0-.438-.585c-.146-.1.342-.1.342-.1a3.632,3.632,0,0,0-.049-.585,1.5,1.5,0,0,1,.049-.585s-.488.292-.636.39-.292-.194-.486-.439a2.1,2.1,0,0,1-.439-.781c-.049-.243.244-.341.244-.341l.438-.243a3.552,3.552,0,0,1,.879-.049c.341.049.877.1.877.1s.146-.342-.049-.488-.635-.39-.83-.341.1-.244.34-.439l-.54-.1s-.491.244-.638.293a1.234,1.234,0,0,0-.6.39c-.194.244.078.585-.117.683a3.045,3.045,0,0,1-.473.194,2.46,2.46,0,0,1-.61,0c-.5,0-.181.46-.05.623l-.39-.476-.289-.682s-.416-.292-.611-.389-.8-.439-.8-.439l.042.439.565.572.05.013.294.39-.649.049V9.129c-.612-.148-.452-.3-.521-.347-.145-.1-.484-.342-.484-.342s-.574.1-.721.147-.188.195-.479.292a.919.919,0,0,0-.523.39,7.12,7.12,0,0,1-.608.78c-.2.2-.558.146-.7.146A7.628,7.628,0,0,1,12.568,10V9.173a2.06,2.06,0,0,0,.047-.61l.427-.072.713-.147.209-.147.3-.39a.412.412,0,0,1-.094-.585c.117-.164.538-.2.733-.341a2.029,2.029,0,0,1,.489-.244s.342-.292.683-.634a3.052,3.052,0,0,1,.536-.245,5.623,5.623,0,0,0,.977.732,2.922,2.922,0,0,0,.683-.341,1.6,1.6,0,0,0,.1-.585c-.049-.146-.293-.634-.293-.634s-.146.244-.292.439a2.233,2.233,0,0,0-.244.439s-.683-.047-.731-.193-.146-.388-.2-.533-.438-.142-.729-.044.047-.526.047-.526.294-.368.488-.368a5.68,5.68,0,0,0,.828-.3,6.344,6.344,0,0,1,1.025-.272c.244,0,.537.105.684.105h.731L20.71,3.6s.879.325.585.521a3.6,3.6,0,0,1,.489.357c.137.138.491-.127.694-.24A12.935,12.935,0,0,1,28.567,15.195ZM5.3,7.563c0,.2-.266.242,0,.732.34.634.048.927.048.927s-.83.585-.976.683-.536.634-.293.487.536-.292.293.1-.683,1.024-.78,1.269S3,12.588,3,12.881A10.107,10.107,0,0,0,2.857,14a2.432,2.432,0,0,1-.16.877A12.839,12.839,0,0,1,5.21,7.545.4.4,0,0,1,5.3,7.563Zm1.567-1.87A12.965,12.965,0,0,1,11,3.12c-.152.195-.336.395-.336.395s-.341,0-.976.683a8.22,8.22,0,0,0-.633.682,1.267,1.267,0,0,1-.44.489,1.65,1.65,0,0,0-.487.536L7.587,6.1l-.438-.195s-.392.147-.343-.049A1.684,1.684,0,0,1,6.863,5.693Zm5.846,1.138-.194-.292.194-.439.47.188V5.417l.449-.243L14,5.71l.574.635-.381.292-1.016.2V6.315Zm6.342,4.585c.114-.09.487.146.487.146a7.976,7.976,0,0,1,1.414.39c.2.147.537.245.635.392a6.173,6.173,0,0,1,.486.731c.05.146.294.684.343.878a4.386,4.386,0,0,0,.341.927c.146.245.976,1.317,1.268,1.805l.88-.146a2.692,2.692,0,0,1-.2.585c-.1.146-.39.536-.536.731a3.932,3.932,0,0,1-.634.731c-.292.243-.294.487-.439.683a4.52,4.52,0,0,0-.342.634s.1.976.146,1.171-.341.731-.341.731l-.44.44-.588.779.048.731s-.444.343-.689.537-.2.341-.4.537a4.307,4.307,0,0,1-1.152.585c-.195.049-1.271.195-1.271.195v-.438l-.022-.488a3.247,3.247,0,0,0-.3-.78c-.147-.2-.083-.489-.327-.732a1.439,1.439,0,0,1-.383-.586A1.8,1.8,0,0,1,17.1,22s.2-.537.294-.732a.854.854,0,0,0-.1-.683,2.7,2.7,0,0,1-.145-.829c0-.146-.392-.391-.538-.537s-.1-.342-.1-.535a5.117,5.117,0,0,1-.1-.977c.049-.341-.438-.1-.731,0s-.487-.1-.487-.391-.536-.048-.878.146a7.653,7.653,0,0,1-1.124.342.479.479,0,0,1-.583-.146,5.911,5.911,0,0,0-.585-.439,3.012,3.012,0,0,1-.685-.682,4.773,4.773,0,0,1-.73-1.268,4.7,4.7,0,0,1,0-.831,3.759,3.759,0,0,1,.048-.78A2.713,2.713,0,0,1,11,12.878a3.152,3.152,0,0,1,.828-.634c.146-.1.488-.389.488-.585s.2-.292.292-.488.44-.682.879-.487a4.254,4.254,0,0,0,.535-.1,7.319,7.319,0,0,0,.729-.292,2.769,2.769,0,0,1,.681-.144,2.422,2.422,0,0,0,.53.153c.146,0,.622-.085.622-.085a6.973,6.973,0,0,1,.22.854c0,.147.146.292.391.39S18.563,11.807,19.051,11.416Zm5.609,9.561a4.317,4.317,0,0,1-.1.732c-.051.195-.147.537-.195.73a1.669,1.669,0,0,1-.438.684c-.146.1-.391.391-.536.439s-.245-.342-.2-.537a7.629,7.629,0,0,1,.293-.731s.049-.292.1-.488.635-.438.635-.438l.391-.732A1.985,1.985,0,0,1,24.66,20.977ZM3.015,18.071a.719.719,0,0,1,.28.175,1.627,1.627,0,0,0,.537.341c.243.1.341.243.634.39s.2.05.585.488a1.433,1.433,0,0,1,.439.683,3.679,3.679,0,0,0,.342.635c.1.146.39.243.536.341a1.193,1.193,0,0,0,.536.195c.147,0,.586.439.83.487s.244.538.244.538l-.244.682-.2.731.2.585a1.1,1.1,0,0,1-.487.245c-.18,0-.241.114-.438.06A12.931,12.931,0,0,1,3.015,18.071Z" fill="#fff"/>
  </g>
</svg>
