<svg xmlns="http://www.w3.org/2000/svg" width="116.383" height="93.106" viewBox="0 0 116.383 93.106"><path d="M46.377,47.581a2.91,2.91,0,0,0,4.115,0l2.057-2.057a2.91,2.91,0,0,0,0-4.115l-6.5-6.494,6.494-6.5a2.91,2.91,0,0,0,0-4.115L50.49,22.247a2.91,2.91,0,0,0-4.115,0L35.766,32.856a2.91,2.91,0,0,0,0,4.115L46.377,47.581Zm17.459-2.055,2.057,2.057a2.91,2.91,0,0,0,4.115,0L80.617,36.973a2.91,2.91,0,0,0,0-4.115L70.008,22.249a2.91,2.91,0,0,0-4.115,0l-2.057,2.057a2.91,2.91,0,0,0,0,4.115l6.494,6.494-6.494,6.5a2.91,2.91,0,0,0,0,4.115Zm49.637,30.123H69.382a5.733,5.733,0,0,1-5.954,5.819H52.372a6.175,6.175,0,0,1-5.959-5.819H2.91A2.918,2.918,0,0,0,0,78.559v2.91A11.673,11.673,0,0,0,11.638,93.106h93.106a11.673,11.673,0,0,0,11.638-11.638v-2.91A2.918,2.918,0,0,0,113.473,75.649Zm-8.729-66.92A8.754,8.754,0,0,0,96.016,0H20.367a8.754,8.754,0,0,0-8.729,8.729v61.1h93.106ZM93.106,58.192H23.277V11.638h69.83Z" fill="#fff"/></svg>