<svg xmlns="http://www.w3.org/2000/svg" width="97.795" height="97.795" viewBox="0 0 97.795 97.795"><path d="M20.908,46.613l25.705-25.7-8.427-8.427L26.4,24.266a1.513,1.513,0,0,1-2.141,0l-2.141-2.141a1.512,1.512,0,0,1,0-2.141L33.9,8.2,27.478,1.776a6.058,6.058,0,0,0-8.568,0L1.775,18.91a6.06,6.06,0,0,0,0,8.568L20.908,46.613ZM95.106,24.3a9.176,9.176,0,0,0,0-12.975L86.464,2.687a9.179,9.179,0,0,0-12.979,0L64.7,11.475,86.317,33.1ZM60.373,15.8,3.645,72.519.062,93.04a4.055,4.055,0,0,0,4.7,4.691l20.523-3.6L81.994,37.419ZM96.019,70.317l-6.425-6.425L77.813,75.673a1.512,1.512,0,0,1-2.141,0l-2.141-2.141a1.516,1.516,0,0,1,0-2.141L85.312,59.609l-8.431-8.431L51.176,76.88l19.14,19.138a6.058,6.058,0,0,0,8.568,0L96.019,78.885a6.058,6.058,0,0,0,0-8.568Z" transform="translate(0 0.001)" fill="#fff"/></svg>